<?xml version="1.0" encoding="UTF-8" standalone="no"?>
<!DOCTYPE svg PUBLIC "-//W3C//DTD SVG 1.1//EN" "http://www.w3.org/Graphics/SVG/1.1/DTD/svg11.dtd">
<svg width="100%" height="100%" viewBox="0 0 489 108" version="1.1" xmlns="http://www.w3.org/2000/svg" xmlns:xlink="http://www.w3.org/1999/xlink" xml:space="preserve" xmlns:serif="http://www.serif.com/" style="fill-rule:evenodd;clip-rule:evenodd;stroke-linecap:round;stroke-linejoin:round;stroke-miterlimit:1.5;">
    <g transform="matrix(0.142536,0,0,0.136795,-20.0979,-23.8543)">
        <g>
            <g transform="matrix(4.16667,0,0,4.16667,349.978,405.355)">
                <path d="M0,-52.795L0,2.639L-34.316,-23.909L-34.316,-0.001L-50.154,-0.001L-50.154,-55.434L-15.837,-28.886L-15.837,-52.795L0,-52.795Z" style="fill:rgb(70,51,15);fill-rule:nonzero;"/>
            </g>
            <g transform="matrix(4.16667,0,0,4.16667,1079.03,405.351)">
                <path d="M0,-52.794L-19.005,-20.741L-19.005,0L-35.975,0L-35.975,-20.59L-55.056,-52.794L-35.824,-52.794L-27.528,-35.749L-19.232,-52.794L0,-52.794Z" style="fill:rgb(70,51,15);fill-rule:nonzero;"/>
            </g>
            <g transform="matrix(4.16667,0,0,4.16667,1634.15,266.924)">
                <path d="M0,13.651C1.231,15.487 2.866,16.856 4.902,17.762C6.939,18.666 9.188,19.119 11.652,19.119C14.166,19.119 16.328,18.793 18.138,18.138C19.949,17.486 21.543,16.668 22.927,15.687C24.31,14.707 25.554,13.689 26.661,12.633L26.661,29.678C24.598,31.086 22.349,32.28 19.911,33.26C17.471,34.241 14.316,34.731 10.445,34.731C5.869,34.731 1.697,34.077 -2.075,32.77C-5.845,31.463 -9.064,29.578 -11.728,27.113C-14.394,24.65 -16.455,21.709 -17.913,18.29C-19.372,14.871 -20.099,11.049 -20.099,6.826C-20.099,2.602 -19.372,-1.218 -17.913,-4.638C-16.455,-8.057 -14.394,-10.998 -11.728,-13.462C-9.064,-15.925 -5.845,-17.811 -2.075,-19.119C1.697,-20.425 5.869,-21.08 10.445,-21.08C14.316,-21.08 17.471,-20.601 19.911,-19.647C22.349,-18.691 24.598,-17.485 26.661,-16.027L26.661,1.018C25.554,-0.038 24.31,-1.068 22.927,-2.074C21.543,-3.079 19.949,-3.896 18.138,-4.525C16.328,-5.153 14.166,-5.468 11.652,-5.468C9.188,-5.468 6.939,-5.015 4.902,-4.11C2.866,-3.205 1.231,-1.834 0,0C-1.234,1.836 -1.847,4.111 -1.847,6.826C-1.847,9.541 -1.234,11.817 0,13.651" style="fill:rgb(70,51,15);fill-rule:nonzero;"/>
            </g>
            <g transform="matrix(4.91876,0,0,4.03199,-909.009,-528.201)">
                <path d="M618.256,176.906L618.256,220.021L628.916,220.021L628.916,176.906L618.256,176.906ZM625.136,187.685L631.581,187.685C632.905,187.685 633.907,188.034 634.585,188.732C635.263,189.43 635.603,190.415 635.603,191.688C635.603,192.961 635.263,193.947 634.585,194.645C633.907,195.343 632.905,195.692 631.581,195.692L625.136,195.692L625.136,206.47L631.581,206.47C634.908,206.47 637.613,205.875 639.697,204.684C641.781,203.494 643.315,201.789 644.3,199.572C645.286,197.355 645.778,194.727 645.778,191.688C645.778,188.609 645.286,185.97 644.3,183.774C643.315,181.577 641.781,179.883 639.697,178.692C637.613,177.501 634.908,176.906 631.581,176.906L625.136,176.906L625.136,187.685Z" style="fill:rgb(70,51,15);fill-rule:nonzero;"/>
                <path d="M656.729,176.906L656.729,205.855C656.729,208.934 657.125,211.531 657.916,213.646C658.708,215.761 659.798,217.465 661.187,218.758C662.576,220.052 664.167,220.996 665.96,221.591C667.753,222.187 669.65,222.485 671.653,222.485C673.656,222.485 675.554,222.187 677.347,221.591C679.14,220.996 680.73,220.052 682.12,218.758C683.509,217.465 684.599,215.761 685.39,213.646C686.182,211.531 686.577,208.934 686.577,205.855L686.577,176.906L675.917,176.906L675.917,204.623C675.917,206.347 675.57,207.754 674.876,208.842C674.181,209.93 673.107,210.474 671.653,210.474C670.2,210.474 669.125,209.93 668.431,208.842C667.736,207.754 667.389,206.347 667.389,204.623L667.389,176.906L656.729,176.906Z" style="fill:rgb(70,51,15);fill-rule:nonzero;"/>
                <path d="M707.316,199.387L714.245,199.387C716.765,199.387 719.018,198.946 721.005,198.063C722.991,197.18 724.566,195.887 725.729,194.183C726.892,192.479 727.474,190.415 727.474,187.993C727.474,185.529 726.892,183.476 725.729,181.833C724.566,180.191 722.991,178.959 721.005,178.138C719.018,177.317 716.765,176.906 714.245,176.906L699.466,176.906L699.466,220.021L715.214,220.021C718.219,220.021 720.779,219.631 722.895,218.851C725.01,218.07 726.626,216.818 727.74,215.093C728.855,213.369 729.412,211.069 729.412,208.195C729.412,205.896 728.984,203.935 728.128,202.313C727.272,200.691 726.149,199.367 724.76,198.34C723.371,197.314 721.845,196.564 720.181,196.092C718.517,195.62 716.862,195.384 715.214,195.384L707.316,195.384L707.316,202.775L713.761,202.775C714.375,202.775 714.948,202.816 715.481,202.898C716.014,202.98 716.49,203.134 716.91,203.36C717.33,203.586 717.661,203.914 717.904,204.346C718.146,204.777 718.267,205.341 718.267,206.039C718.267,207.189 718.057,208.031 717.637,208.565C717.217,209.098 716.668,209.447 715.99,209.612C715.311,209.776 714.568,209.858 713.761,209.858L710.127,209.858L710.127,187.069L712.792,187.069C714.019,187.069 714.916,187.325 715.481,187.839C716.046,188.352 716.329,189.163 716.329,190.272C716.329,191.011 716.2,191.647 715.941,192.181C715.683,192.715 715.295,193.125 714.778,193.413C714.261,193.7 713.599,193.844 712.792,193.844L707.316,193.844L707.316,199.387Z" style="fill:rgb(70,51,15);fill-rule:nonzero;"/>
                <path d="M741.089,176.906L741.089,220.021L765.559,220.021L765.559,208.626L751.75,208.626L751.75,176.906L741.089,176.906Z" style="fill:rgb(70,51,15);fill-rule:nonzero;"/>
                <rect x="775.299" y="176.906" width="10.902" height="43.115" style="fill:rgb(70,51,15);fill-rule:nonzero;"/>
                <path d="M809.12,198.463C809.12,196.246 809.516,194.388 810.308,192.889C811.099,191.391 812.149,190.272 813.457,189.533C814.766,188.793 816.211,188.424 817.794,188.424C819.409,188.424 820.798,188.68 821.961,189.194C823.124,189.707 824.15,190.374 825.038,191.196C825.926,192.017 826.726,192.859 827.437,193.721L827.437,179.801C826.112,178.61 824.667,177.625 823.1,176.844C821.533,176.064 819.506,175.674 817.019,175.674C814.079,175.674 811.398,176.208 808.975,177.276C806.552,178.343 804.485,179.883 802.773,181.895C801.061,183.907 799.736,186.309 798.8,189.101C797.863,191.894 797.394,195.014 797.394,198.463C797.394,201.913 797.863,205.033 798.8,207.826C799.736,210.618 801.061,213.02 802.773,215.032C804.485,217.044 806.552,218.584 808.975,219.651C811.398,220.719 814.079,221.253 817.019,221.253C819.506,221.253 821.533,220.852 823.1,220.052C824.667,219.251 826.112,218.276 827.437,217.126L827.437,203.206C826.726,204.068 825.926,204.9 825.038,205.701C824.15,206.501 823.124,207.169 821.961,207.702C820.798,208.236 819.409,208.503 817.794,208.503C816.211,208.503 814.766,208.133 813.457,207.394C812.149,206.655 811.099,205.536 810.308,204.038C809.516,202.539 809.12,200.681 809.12,198.463Z" style="fill:rgb(70,51,15);fill-rule:nonzero;"/>
                <path d="M618.256,225.503L618.256,268.617L642.726,268.617L642.726,257.223L628.916,257.223L628.916,225.503L618.256,225.503Z" style="fill:rgb(70,51,15);fill-rule:nonzero;"/>
                <rect x="652.707" y="225.503" width="10.902" height="43.115" style="fill:rgb(70,51,15);fill-rule:nonzero;"/>
                <path d="M684.833,247.984L691.762,247.984C694.282,247.984 696.535,247.543 698.522,246.66C700.508,245.777 702.083,244.483 703.246,242.779C704.409,241.075 704.99,239.012 704.99,236.589C704.99,234.126 704.409,232.073 703.246,230.43C702.083,228.788 700.508,227.556 698.522,226.734C696.535,225.913 694.282,225.503 691.762,225.503L676.983,225.503L676.983,268.617L692.731,268.617C695.735,268.617 698.295,268.227 700.411,267.447C702.527,266.667 704.142,265.415 705.257,263.69C706.371,261.965 706.929,259.666 706.929,256.792C706.929,254.492 706.501,252.532 705.645,250.91C704.788,249.288 703.666,247.963 702.277,246.937C700.888,245.91 699.362,245.161 697.698,244.689C696.034,244.217 694.379,243.98 692.731,243.98L684.833,243.98L684.833,251.372L691.278,251.372C691.891,251.372 692.465,251.413 692.998,251.495C693.531,251.577 694.007,251.731 694.427,251.957C694.847,252.183 695.178,252.511 695.42,252.942C695.663,253.373 695.784,253.938 695.784,254.636C695.784,255.786 695.574,256.627 695.154,257.161C694.734,257.695 694.185,258.044 693.507,258.208C692.828,258.373 692.085,258.455 691.278,258.455L687.643,258.455L687.643,235.665L690.308,235.665C691.536,235.665 692.432,235.922 692.998,236.435C693.563,236.949 693.846,237.76 693.846,238.868C693.846,239.607 693.716,240.244 693.458,240.778C693.2,241.311 692.812,241.722 692.295,242.009C691.778,242.297 691.116,242.441 690.308,242.441L684.833,242.441L684.833,247.984Z" style="fill:rgb(70,51,15);fill-rule:nonzero;"/>
                <path d="M728.782,250.14L737.019,268.617L749.375,268.617L739.684,250.14L728.782,250.14ZM718.849,225.503L718.849,268.617L729.509,268.617L729.509,225.503L718.849,225.503ZM725.729,236.897L732.174,236.897C733.078,236.897 733.821,237.051 734.403,237.359C734.984,237.667 735.428,238.119 735.735,238.714C736.042,239.31 736.195,240.038 736.195,240.901C736.195,241.722 736.042,242.441 735.735,243.057C735.428,243.672 734.984,244.134 734.403,244.442C733.821,244.75 733.078,244.904 732.174,244.904L725.729,244.904L725.729,255.067L733.143,255.067C736.47,255.067 739.175,254.431 741.259,253.158C743.343,251.885 744.877,250.129 745.862,247.892C746.848,245.654 747.34,243.118 747.34,240.285C747.34,237.411 746.848,234.865 745.862,232.647C744.877,230.43 743.343,228.685 741.259,227.412C739.175,226.139 736.47,225.503 733.143,225.503L725.729,225.503L725.729,236.897Z" style="fill:rgb(70,51,15);fill-rule:nonzero;"/>
                <path d="M765.995,263.074L783.924,263.074L783.924,253.343L765.995,253.343L765.995,263.074ZM774.863,245.089L779.03,256.976L778.303,260.487L781.889,268.617L794.002,268.617L774.863,222.423L755.723,268.617L767.837,268.617L771.519,260.056L770.696,256.976L774.863,245.089Z" style="fill:rgb(70,51,15);fill-rule:nonzero;"/>
                <path d="M813.675,250.14L821.913,268.617L834.269,268.617L824.578,250.14L813.675,250.14ZM803.742,225.503L803.742,268.617L814.402,268.617L814.402,225.503L803.742,225.503ZM810.623,236.897L817.067,236.897C817.972,236.897 818.715,237.051 819.296,237.359C819.878,237.667 820.322,238.119 820.629,238.714C820.935,239.31 821.089,240.038 821.089,240.901C821.089,241.722 820.935,242.441 820.629,243.057C820.322,243.672 819.878,244.134 819.296,244.442C818.715,244.75 817.972,244.904 817.067,244.904L810.623,244.904L810.623,255.067L818.036,255.067C821.363,255.067 824.069,254.431 826.152,253.158C828.236,251.885 829.77,250.129 830.756,247.892C831.741,245.654 832.234,243.118 832.234,240.285C832.234,237.411 831.741,234.865 830.756,232.647C829.77,230.43 828.236,228.685 826.152,227.412C824.069,226.139 821.363,225.503 818.036,225.503L810.623,225.503L810.623,236.897Z" style="fill:rgb(70,51,15);fill-rule:nonzero;"/>
                <path d="M863.633,225.503L858.302,239.423L852.972,225.503L840.616,225.503L852.875,251.803L852.875,268.617L863.778,268.617L863.778,251.68L875.989,225.503L863.633,225.503Z" style="fill:rgb(70,51,15);fill-rule:nonzero;"/>
                <path d="M624.894,311.671L642.822,311.671L642.822,301.939L624.894,301.939L624.894,311.671ZM633.761,293.686L637.928,305.573L637.202,309.084L640.787,317.214L652.901,317.214L633.761,271.02L614.622,317.214L626.735,317.214L630.418,308.653L629.594,305.573L633.761,293.686Z" style="fill:rgb(70,51,15);fill-rule:nonzero;"/>
                <path d="M670.442,295.657C670.442,293.439 670.838,291.581 671.629,290.083C672.42,288.584 673.47,287.465 674.779,286.726C676.087,285.987 677.532,285.617 679.115,285.617C680.73,285.617 682.12,285.874 683.282,286.387C684.445,286.9 685.471,287.567 686.359,288.389C687.248,289.21 688.047,290.052 688.758,290.914L688.758,276.994C687.433,275.803 685.988,274.818 684.421,274.038C682.854,273.257 680.827,272.867 678.34,272.867C675.4,272.867 672.719,273.401 670.296,274.469C667.874,275.536 665.806,277.076 664.094,279.088C662.382,281.1 661.058,283.502 660.121,286.295C659.184,289.087 658.716,292.207 658.716,295.657C658.716,299.106 659.184,302.227 660.121,305.019C661.058,307.811 662.382,310.213 664.094,312.225C665.806,314.237 667.874,315.777 670.296,316.845C672.719,317.912 675.4,318.446 678.34,318.446C680.827,318.446 682.854,318.046 684.421,317.245C685.988,316.444 687.433,315.469 688.758,314.319L688.758,300.399C688.047,301.262 687.248,302.093 686.359,302.894C685.471,303.695 684.445,304.362 683.282,304.896C682.12,305.429 680.73,305.696 679.115,305.696C677.532,305.696 676.087,305.327 674.779,304.588C673.47,303.848 672.42,302.73 671.629,301.231C670.838,299.732 670.442,297.874 670.442,295.657Z" style="fill:rgb(70,51,15);fill-rule:nonzero;"/>
                <path d="M690.454,286.11L700.145,286.11L700.145,317.214L710.805,317.214L710.805,286.11L720.496,286.11L720.496,274.099L690.454,274.099L690.454,286.11Z" style="fill:rgb(70,51,15);fill-rule:nonzero;"/>
                <rect x="730.817" y="274.099" width="10.902" height="43.115" style="fill:rgb(70,51,15);fill-rule:nonzero;"/>
                <path d="M764.784,295.657C764.784,293.521 765.091,291.663 765.705,290.083C766.318,288.502 767.191,287.27 768.321,286.387C769.452,285.504 770.809,285.063 772.391,285.063C774.071,285.063 775.468,285.504 776.583,286.387C777.697,287.27 778.545,288.502 779.127,290.083C779.708,291.663 779.999,293.521 779.999,295.657C779.999,297.751 779.692,299.599 779.078,301.2C778.465,302.801 777.592,304.044 776.462,304.926C775.331,305.809 773.974,306.251 772.391,306.251C770.809,306.251 769.452,305.809 768.321,304.926C767.191,304.044 766.318,302.801 765.705,301.2C765.091,299.599 764.784,297.751 764.784,295.657ZM753.494,295.657C753.494,299.106 753.954,302.257 754.875,305.111C755.796,307.965 757.096,310.439 758.776,312.533C760.455,314.627 762.45,316.239 764.76,317.368C767.069,318.497 769.613,319.062 772.391,319.062C775.17,319.062 777.713,318.497 780.023,317.368C782.333,316.239 784.328,314.627 786.007,312.533C787.687,310.439 788.987,307.965 789.908,305.111C790.829,302.257 791.289,299.106 791.289,295.657C791.289,292.207 790.821,289.087 789.884,286.295C788.947,283.502 787.623,281.1 785.91,279.088C784.198,277.076 782.196,275.536 779.902,274.469C777.608,273.401 775.105,272.867 772.391,272.867C769.743,272.867 767.271,273.401 764.978,274.469C762.684,275.536 760.681,277.076 758.969,279.088C757.257,281.1 755.917,283.502 754.948,286.295C753.979,289.087 753.494,292.207 753.494,295.657Z" style="fill:rgb(70,51,15);fill-rule:nonzero;"/>
                <path d="M820.847,274.099L820.847,293.624L798.8,271.943L798.8,317.214L808.975,317.214L808.975,297.689L831.022,319.37L831.022,274.099L820.847,274.099Z" style="fill:rgb(70,51,15);fill-rule:nonzero;"/>
                <path d="M640.303,322.696L640.303,342.221L618.256,320.54L618.256,365.811L628.431,365.811L628.431,346.286L650.478,367.966L650.478,322.696L640.303,322.696Z" style="fill:rgb(70,51,15);fill-rule:nonzero;"/>
                <path d="M664.87,365.811L681.974,365.811L681.974,355.032L664.87,355.032L664.87,365.811ZM664.87,333.475L681.974,333.475L681.974,322.696L664.87,322.696L664.87,333.475ZM664.87,348.873L681.005,348.873L681.005,338.402L664.87,338.402L664.87,348.873ZM657.504,322.696L657.504,365.811L667.68,365.811L667.68,322.696L657.504,322.696Z" style="fill:rgb(70,51,15);fill-rule:nonzero;"/>
                <path d="M689.242,334.706L698.933,334.706L698.933,365.811L709.594,365.811L709.594,334.706L719.285,334.706L719.285,322.696L689.242,322.696L689.242,334.706Z" style="fill:rgb(70,51,15);fill-rule:nonzero;"/>
                <path d="M763.33,342.96L754.512,320.54L745.693,342.96L740.46,322.696L727.619,322.696L743.125,368.582L754.512,347.148L765.898,368.582L781.404,322.696L768.564,322.696L763.33,342.96Z" style="fill:rgb(70,51,15);fill-rule:nonzero;"/>
                <path d="M800.302,344.253C800.302,342.118 800.609,340.26 801.222,338.679C801.836,337.098 802.708,335.866 803.839,334.984C804.969,334.101 806.326,333.659 807.909,333.659C809.589,333.659 810.986,334.101 812.1,334.984C813.215,335.866 814.063,337.098 814.644,338.679C815.226,340.26 815.517,342.118 815.517,344.253C815.517,346.347 815.21,348.195 814.596,349.797C813.982,351.398 813.11,352.64 811.979,353.523C810.849,354.406 809.492,354.847 807.909,354.847C806.326,354.847 804.969,354.406 803.839,353.523C802.708,352.64 801.836,351.398 801.222,349.797C800.609,348.195 800.302,346.347 800.302,344.253ZM789.012,344.253C789.012,347.702 789.472,350.854 790.393,353.708C791.313,356.562 792.613,359.036 794.293,361.13C795.973,363.224 797.968,364.835 800.277,365.965C802.587,367.094 805.131,367.658 807.909,367.658C810.687,367.658 813.231,367.094 815.541,365.965C817.85,364.835 819.845,363.224 821.525,361.13C823.205,359.036 824.505,356.562 825.426,353.708C826.346,350.854 826.807,347.702 826.807,344.253C826.807,340.804 826.338,337.683 825.401,334.891C824.465,332.099 823.14,329.697 821.428,327.685C819.716,325.673 817.713,324.133 815.42,323.065C813.126,321.998 810.623,321.464 807.909,321.464C805.26,321.464 802.789,321.998 800.495,323.065C798.202,324.133 796.199,325.673 794.487,327.685C792.775,329.697 791.434,332.099 790.465,334.891C789.496,337.683 789.012,340.804 789.012,344.253Z" style="fill:rgb(70,51,15);fill-rule:nonzero;"/>
                <path d="M844.25,347.333L852.488,365.811L864.844,365.811L855.153,347.333L844.25,347.333ZM834.317,322.696L834.317,365.811L844.977,365.811L844.977,322.696L834.317,322.696ZM841.198,334.09L847.642,334.09C848.547,334.09 849.29,334.244 849.871,334.552C850.453,334.86 850.897,335.312 851.204,335.907C851.511,336.503 851.664,337.232 851.664,338.094C851.664,338.915 851.511,339.634 851.204,340.25C850.897,340.866 850.453,341.328 849.871,341.636C849.29,341.944 848.547,342.098 847.642,342.098L841.198,342.098L841.198,352.26L848.611,352.26C851.939,352.26 854.644,351.624 856.728,350.351C858.811,349.078 860.346,347.323 861.331,345.085C862.316,342.847 862.809,340.311 862.809,337.478C862.809,334.604 862.316,332.058 861.331,329.841C860.346,327.623 858.811,325.878 856.728,324.605C854.644,323.332 851.939,322.696 848.611,322.696L841.198,322.696L841.198,334.09Z" style="fill:rgb(70,51,15);fill-rule:nonzero;"/>
                <path d="M875.262,322.696L875.262,365.811L886.406,365.811L886.406,322.696L875.262,322.696ZM896.824,322.696L883.354,343.329L897.067,365.811L909.956,365.811L896.001,342.898L909.229,322.696L896.824,322.696Z" style="fill:rgb(70,51,15);fill-rule:nonzero;"/>
            </g>
        </g>
        <g transform="matrix(4.16667,0,0,4.16667,190.898,929.094)">
            <path d="M0,-109.986L22.155,-109.986C30.115,-109.986 37.055,-108.597 42.974,-105.822C48.89,-103.046 53.475,-99.118 56.722,-94.038C59.968,-88.956 61.593,-82.907 61.593,-75.89C61.593,-68.871 59.968,-62.795 56.722,-57.664C53.475,-52.53 48.89,-48.575 42.974,-45.8C37.055,-43.024 30.115,-41.637 22.155,-41.637L0,-41.637L0,-57.978L22.155,-57.978C28.543,-57.978 33.677,-59.495 37.553,-62.534C41.427,-65.571 43.367,-70.022 43.367,-75.89C43.367,-81.755 41.427,-86.182 37.553,-89.167C33.677,-92.152 28.543,-93.645 22.155,-93.645L0,-93.645L0,-109.986ZM7.542,0L-10.999,0L-10.999,-109.986L7.542,-109.986L7.542,0Z" style="fill:rgb(49,85,101);fill-rule:nonzero;"/>
        </g>
        <g transform="matrix(4.16667,0,0,4.16667,609.059,929.094)">
            <path d="M0,-109.986L0,-16.654L43.68,-16.654L43.68,0L-18.541,0L-18.541,-109.986L0,-109.986Z" style="fill:rgb(49,85,101);fill-rule:nonzero;"/>
        </g>
        <g transform="matrix(4.16667,0,0,4.16667,944.07,628.596)">
            <path d="M0,28.126L51.065,28.126L54.68,43.838L-3.456,43.838L0,28.126ZM8.014,33.625L7.699,37.711L-7.542,72.12L-28.44,72.12L25.297,-43.994L79.034,72.12L58.135,72.12L43.209,38.654L42.738,34.096L25.297,-6.756L8.014,33.625Z" style="fill:rgb(49,85,101);fill-rule:nonzero;"/>
        </g>
        <g transform="matrix(4.16667,0,0,4.16667,1745.22,929.098)">
            <path d="M0,-109.987L0,5.499L-80.29,-73.848L-80.29,-0.001L-98.517,-0.001L-98.517,-115.486L-18.226,-36.138L-18.226,-109.987L0,-109.987Z" style="fill:rgb(49,85,101);fill-rule:nonzero;"/>
        </g>
        <g transform="matrix(-4.16667,0,0,4.16667,4325.55,-571.408)">
            <rect x="563.377" y="178.989" width="18.541" height="186.631" style="fill:rgb(108,20,18);"/>
        </g>
        <g transform="matrix(1,0,0,1,-293.765,-1961.9)">
            <circle cx="894.952" cy="2257.26" r="69.382" style="fill:rgb(108,20,18);stroke:rgb(235,235,235);stroke-opacity:0;stroke-width:7.16px;"/>
        </g>
        <g transform="matrix(1,0,0,1,416.235,-1961.9)">
            <circle cx="894.952" cy="2257.26" r="69.382" style="fill:rgb(108,20,18);stroke:rgb(235,235,235);stroke-opacity:0;stroke-width:7.16px;"/>
        </g>
    </g>
</svg>
